# xmcd
#
# Track frame offsets:
#	150
#	12144
#	33066
#	44915
#	64567
#	77838
#	105185
#	132150
#	143361
#	165149
#	176928
#	207326
#
# Disc length: 2981 seconds
#
# Revision: 0
# Processed by: cddbd v1.5.1PL0 Copyright (c) Steve Scherf et al.
# Submitted via: dBpowerAMP V4.0
#
DISCID=8f0ba30c
DTITLE=Sonny Rhodes - I Don'y Want Play My colored Blues
DYEAR=1977
DGENRE=Blues
TTITLE0=One More Drink
TTITLE1=Take the Bitter With the Sweet
TTITLE2=Just Got It
TTITLE3=All Night Long They Play the Blues
TTITLE4=Killing Floor
TTITLE5=I'm So Lonely
TTITLE6=Country Boy
TTITLE7=How Long
TTITLE8=J.J'S Blues in G
TTITLE9=Stranded
TTITLE10=Sitting and Thinking
TTITLE11=Next Time You See Me
EXTD=
EXTT0=
EXTT1=
EXTT2=
EXTT3=
EXTT4=
EXTT5=
EXTT6=
EXTT7=
EXTT8=
EXTT9=
EXTT10=
EXTT11=
PLAYORDER=
